<svg xmlns="http://www.w3.org/2000/svg" viewBox="0 0 1365 768" role="img" aria-labelledby="title desc">
  <title id="title">Desktop services menu preview</title>
  <desc id="desc">Preview of the DOSU Optical desktop services mega menu after replacing long descriptions with visual cards.</desc>
  <defs>
    <linearGradient id="page" x1="0" x2="1" y1="0" y2="1"><stop stop-color="#ff3b19"/><stop offset="1" stop-color="#ff7a00"/></linearGradient>
    <linearGradient id="dark" x1="0" x2="1" y1="0" y2="1"><stop stop-color="#050816"/><stop offset="1" stop-color="#111827"/></linearGradient>
    <linearGradient id="shade" x1="0" x2="0" y1="0" y2="1"><stop stop-color="#020617" stop-opacity="0"/><stop offset="1" stop-color="#020617" stop-opacity=".86"/></linearGradient>
    <filter id="shadow" x="-20%" y="-20%" width="140%" height="140%"><feDropShadow dx="0" dy="28" stdDeviation="28" flood-color="#020617" flood-opacity=".38"/></filter>
    <symbol id="eye-exam" viewBox="0 0 640 420"><rect width="640" height="420" fill="#dbeafe"/><circle cx="470" cy="180" r="92" fill="#ff7a00"/><path d="M120 165c55-48 122-48 177 0 55-48 122-48 177 0" fill="none" stroke="#0f172a" stroke-width="18" stroke-linecap="round"/><rect x="112" y="292" width="420" height="42" rx="21" fill="#0f172a" opacity=".85"/></symbol>
    <symbol id="child" viewBox="0 0 640 420"><rect width="640" height="420" fill="#fff7ed"/><circle cx="214" cy="150" r="74" fill="#fed7aa"/><circle cx="426" cy="150" r="74" fill="#bfdbfe"/><path d="M139 180h150M351 180h150M289 180h62" stroke="#0f172a" stroke-width="18" stroke-linecap="round"/><path d="M170 292c48 38 252 38 300 0" fill="none" stroke="#ff7a00" stroke-width="20" stroke-linecap="round"/></symbol>
    <symbol id="myopia" viewBox="0 0 640 420"><rect width="640" height="420" fill="#ecfeff"/><circle cx="320" cy="206" r="132" fill="#fff"/><circle cx="320" cy="206" r="68" fill="#38bdf8"/><circle cx="320" cy="206" r="28" fill="#0f172a"/><path d="M78 208c64-96 149-144 242-144s178 48 242 144c-64 96-149 144-242 144S142 304 78 208Z" fill="none" stroke="#0f172a" stroke-width="20"/><path d="M465 83 175 373" stroke="#ff7a00" stroke-width="18" stroke-linecap="round" opacity=".85"/></symbol>
    <symbol id="progressive" viewBox="0 0 640 420"><rect width="640" height="420" fill="#f8fafc"/><rect x="112" y="74" width="174" height="248" rx="54" fill="#dbeafe" stroke="#0f172a" stroke-width="16"/><rect x="354" y="74" width="174" height="248" rx="54" fill="#fed7aa" stroke="#0f172a" stroke-width="16"/><path d="M286 190h68" stroke="#0f172a" stroke-width="16" stroke-linecap="round"/><path d="M146 147h106M146 210h106M146 273h106M388 147h106M388 210h106M388 273h106" stroke="#ff7a00" stroke-width="12" stroke-linecap="round" opacity=".85"/></symbol>
    <symbol id="contacts" viewBox="0 0 640 420"><rect width="640" height="420" fill="#eff6ff"/><ellipse cx="250" cy="208" rx="132" ry="88" fill="#fff" stroke="#0f172a" stroke-width="18"/><ellipse cx="390" cy="208" rx="132" ry="88" fill="#fff" stroke="#0f172a" stroke-width="18"/><circle cx="250" cy="208" r="46" fill="#38bdf8" opacity=".75"/><circle cx="390" cy="208" r="46" fill="#ff7a00" opacity=".75"/></symbol>
    <symbol id="dry" viewBox="0 0 640 420"><rect width="640" height="420" fill="#f0fdf4"/><path d="M92 211c62-88 140-132 228-132s166 44 228 132c-62 88-140 132-228 132S154 299 92 211Z" fill="#fff" stroke="#0f172a" stroke-width="18"/><circle cx="320" cy="211" r="58" fill="#22c55e" opacity=".6"/><path d="M432 274c0 42-34 76-76 76 0-52 76-106 76-76Z" fill="#38bdf8"/><path d="M134 98 506 324" stroke="#ff7a00" stroke-width="18" stroke-linecap="round" opacity=".85"/></symbol>
  </defs>
  <rect width="1365" height="768" fill="url(#page)"/>
  <rect y="0" width="1365" height="32" fill="#020617"/><text x="683" y="21" text-anchor="middle" font-family="Arial, sans-serif" font-size="11" font-weight="700" fill="#ffffff" opacity=".7">Premium eye examinations, curated frames, and lens care in Taipan USJ</text>
  <rect y="32" width="1365" height="104" fill="#030712"/>
  <text x="68" y="91" font-family="Arial, sans-serif" font-size="18" font-style="italic" font-weight="900" fill="#ffffff">DOSU <tspan fill="#ff7a00">OPTICAL</tspan></text>
  <rect x="453" y="48" width="84" height="44" rx="22" fill="#ffffff" opacity=".12"/><text x="495" y="76" text-anchor="middle" font-family="Arial, sans-serif" font-size="14" font-weight="800" fill="#fff">Services</text>
  <text x="557" y="76" font-family="Arial, sans-serif" font-size="14" font-weight="800" fill="#fff" opacity=".75">Brands</text><text x="636" y="76" font-family="Arial, sans-serif" font-size="14" font-weight="800" fill="#fff" opacity=".75">Learn</text><text x="706" y="76" font-family="Arial, sans-serif" font-size="14" font-weight="800" fill="#fff" opacity=".75">About</text><text x="782" y="76" font-family="Arial, sans-serif" font-size="14" font-weight="800" fill="#fff" opacity=".75">Contact</text>
  <text x="1122" y="76" font-family="Arial, sans-serif" font-size="14" font-weight="800" fill="#fff" opacity=".75">FAQ</text><rect x="1160" y="50" width="124" height="40" rx="20" fill="#fff"/><text x="1222" y="76" text-anchor="middle" font-family="Arial, sans-serif" font-size="14" font-weight="900" fill="#0f172a">Appointment</text>
  <rect x="115" y="136" width="760" height="488" rx="30" fill="url(#dark)" filter="url(#shadow)"/>
  <rect x="139" y="160" width="283" height="440" rx="24" fill="#0f172a"/>
  <use href="#eye-exam" x="139" y="160" width="283" height="440" preserveAspectRatio="xMidYMid slice"/><rect x="139" y="160" width="283" height="440" rx="24" fill="url(#shade)"/>
  <text x="163" y="530" font-family="Arial, sans-serif" font-size="12" font-weight="900" letter-spacing="3" fill="#fff" opacity=".75">EXPLORE SERVICES</text><rect x="163" y="546" width="92" height="40" rx="20" fill="#fff"/><text x="209" y="571" text-anchor="middle" font-family="Arial, sans-serif" font-size="12" font-weight="900" fill="#0f172a">VIEW ALL</text>
  <g font-family="Arial, sans-serif" font-size="14" font-weight="900" fill="#fff">
    <g transform="translate(470 172)"><rect width="158" height="150" rx="20" fill="#111827"/><use href="#eye-exam" width="158" height="150" preserveAspectRatio="xMidYMid slice"/><rect width="158" height="150" rx="20" fill="url(#shade)"/><text x="16" y="126">Comprehensive Eye</text><text x="16" y="143">Examination</text></g>
    <g transform="translate(660 172)"><rect width="158" height="150" rx="20" fill="#111827"/><use href="#child" width="158" height="150" preserveAspectRatio="xMidYMid slice"/><rect width="158" height="150" rx="20" fill="url(#shade)"/><text x="16" y="126">Children’s Eye Care</text></g>
    <g transform="translate(470 342)"><rect width="158" height="150" rx="20" fill="#111827"/><use href="#myopia" width="158" height="150" preserveAspectRatio="xMidYMid slice"/><rect width="158" height="150" rx="20" fill="url(#shade)"/><text x="16" y="126">Myopia Management</text></g>
    <g transform="translate(660 342)"><rect width="158" height="150" rx="20" fill="#111827"/><use href="#progressive" width="158" height="150" preserveAspectRatio="xMidYMid slice"/><rect width="158" height="150" rx="20" fill="url(#shade)"/><text x="16" y="126">Progressive Lens</text><text x="16" y="143">Consultation</text></g>
    <g transform="translate(470 512)"><rect width="158" height="88" rx="20" fill="#111827"/><use href="#contacts" width="158" height="88" preserveAspectRatio="xMidYMid slice"/><rect width="158" height="88" rx="20" fill="url(#shade)"/><text x="16" y="65">Contact Lenses</text></g>
    <g transform="translate(660 512)"><rect width="158" height="88" rx="20" fill="#111827"/><use href="#dry" width="158" height="88" preserveAspectRatio="xMidYMid slice"/><rect width="158" height="88" rx="20" fill="url(#shade)"/><text x="16" y="65">Dry Eye Consultation</text></g>
  </g>
  <text x="55" y="306" font-family="Arial, sans-serif" font-size="13" font-weight="900" letter-spacing="4" fill="#fff" opacity=".75">TAIPAN USJ OPTICAL SHOP</text>
  <text x="55" y="402" font-family="Arial, sans-serif" font-size="70" font-weight="900" letter-spacing="-5" fill="#0f172a">SEE SHARPER.</text>
  <text x="55" y="474" font-family="Arial, sans-serif" font-size="70" font-weight="900" letter-spacing="-5" fill="#0f172a">LOOK ICONIC.</text>
  <path d="M877 391l146-42 88 39 35-60 46 26-36 65 62 95-118-13-52-52-94 43-77-101Z" fill="#0f172a"/>
  <rect x="1112" y="582" width="219" height="54" rx="14" fill="#fff"/><text x="1134" y="614" font-family="Arial, sans-serif" font-size="14" fill="#334155">Hi there, how can I help you?</text><circle cx="1304" cy="680" r="28" fill="#22c55e"/><text x="1304" y="690" text-anchor="middle" font-family="Arial, sans-serif" font-size="25" fill="#fff">☎</text>
</svg>
